<svg width="83" height="88" viewBox="0 0 83 88" fill="none" xmlns="http://www.w3.org/2000/svg">
<path fill-rule="evenodd" clip-rule="evenodd" d="M0 22L7.48 26.3192C9.01551 23.6522 10.9012 21.2098 13.1102 19.0008C16.3608 15.7502 20.1412 13.2 24.3527 11.422C28.7078 9.58123 33.3322 8.64735 38.1094 8.64735C42.8865 8.64735 47.52 9.58123 51.8661 11.422C56.0776 13.2 59.858 15.7502 63.1086 19.0008C66.3592 22.2514 68.9094 26.0318 70.6873 30.2433C72.5371 34.5894 73.471 39.2229 73.471 44C73.471 48.7771 72.5371 53.4106 70.6963 57.7567C68.9184 61.9682 66.3682 65.7486 63.1175 68.9992C59.8669 72.2498 56.0865 74.8 51.8751 76.578C47.52 78.4188 42.8955 79.3527 38.1184 79.3527C35.0384 79.3527 31.9943 78.9576 29.049 78.1853C26.2024 77.431 23.4457 76.3176 20.8686 74.8718C15.7861 72.0253 11.431 67.9216 8.29714 63.0008C8.01878 62.5608 7.74939 62.1208 7.48898 61.6718L0 66C0.323265 66.5657 0.66449 67.1135 1.00571 67.6612C8.82694 79.8914 22.5208 88 38.1094 88C62.4082 88 82.1094 68.2988 82.1094 44C82.1094 19.7012 62.4082 0 38.1094 0C21.8294 0 7.60571 8.84489 0 22Z" fill="#09357B"/>
</svg>
